<?xml version="1.0" encoding="UTF-8"?>
<svg version="1.1" xmlns="http://www.w3.org/2000/svg" width="240" height="240">
<path d="M0 0 C0.66019135 0.00215515 1.32038269 0.0043103 2.00057983 0.00653076 C36.30152069 0.18603264 65.17676104 14.32351004 89.296875 38.3515625 C110.05442635 60.52062735 120.69639134 89.97328973 120.5625 120.0625 C120.55926727 121.05278702 120.55926727 121.05278702 120.55596924 122.06307983 C120.37646736 156.36402069 106.23898996 185.23926104 82.2109375 209.359375 C60.04187265 230.11692635 30.58921027 240.75889134 0.5 240.625 C-0.16019135 240.62284485 -0.82038269 240.6206897 -1.50057983 240.61846924 C-35.80152069 240.43896736 -64.67676104 226.30148996 -88.796875 202.2734375 C-109.55442635 180.10437265 -120.19639134 150.65171027 -120.0625 120.5625 C-120.06034485 119.90230865 -120.0581897 119.24211731 -120.05596924 118.56192017 C-119.87646736 84.26097931 -105.73898996 55.38573896 -81.7109375 31.265625 C-59.54187265 10.50807365 -30.08921027 -0.13389134 0 0 Z " fill="#027FCB" transform="translate(119.75,-0.3125)"/>
<path d="M0 0 C0.66019135 0.00215515 1.32038269 0.0043103 2.00057983 0.00653076 C36.30152069 0.18603264 65.17676104 14.32351004 89.296875 38.3515625 C110.05442635 60.52062735 120.69639134 89.97328973 120.5625 120.0625 C120.55926727 121.05278702 120.55926727 121.05278702 120.55596924 122.06307983 C120.37646736 156.36402069 106.23898996 185.23926104 82.2109375 209.359375 C60.04187265 230.11692635 30.58921027 240.75889134 0.5 240.625 C-0.16019135 240.62284485 -0.82038269 240.6206897 -1.50057983 240.61846924 C-35.80152069 240.43896736 -64.67676104 226.30148996 -88.796875 202.2734375 C-109.55442635 180.10437265 -120.19639134 150.65171027 -120.0625 120.5625 C-120.06034485 119.90230865 -120.0581897 119.24211731 -120.05596924 118.56192017 C-119.87646736 84.26097931 -105.73898996 55.38573896 -81.7109375 31.265625 C-59.54187265 10.50807365 -30.08921027 -0.13389134 0 0 Z M-14.75 21.3125 C-14.75 21.9725 -14.75 22.6325 -14.75 23.3125 C-17.06 23.9725 -19.37 24.6325 -21.75 25.3125 C-21.75 25.9725 -21.75 26.6325 -21.75 27.3125 C-22.4925 27.43625 -23.235 27.56 -24 27.6875 C-26.55141485 28.26736701 -28.4767573 29.04958739 -30.75 30.3125 C-30.75 30.9725 -30.75 31.6325 -30.75 32.3125 C-32.4825 32.7765625 -32.4825 32.7765625 -34.25 33.25 C-41.92934892 35.76458616 -48.80985201 40.25059744 -55.75 44.3125 C-55.75 44.9725 -55.75 45.6325 -55.75 46.3125 C-56.45511719 46.41433594 -57.16023438 46.51617187 -57.88671875 46.62109375 C-61.16059645 47.41164812 -63.63584467 48.71773734 -66.5625 50.375 C-67.53832031 50.92285156 -68.51414062 51.47070312 -69.51953125 52.03515625 C-70.25558594 52.45667969 -70.99164063 52.87820312 -71.75 53.3125 C-71.75 53.9725 -71.75 54.6325 -71.75 55.3125 C-72.28367187 55.45945313 -72.81734375 55.60640625 -73.3671875 55.7578125 C-81.58782536 58.23253739 -90.02748023 61.83351072 -94.75 69.3125 C-95.34164212 72.52379441 -95.30691337 75.69052645 -95.28344727 78.94873047 C-95.29206284 79.91357361 -95.30067841 80.87841675 -95.30955505 81.87249756 C-95.33223698 85.05850133 -95.32547101 88.24362695 -95.31640625 91.4296875 C-95.32164143 93.64779929 -95.32791753 95.86590885 -95.33518982 98.08401489 C-95.34559864 102.73271154 -95.34102634 107.38110218 -95.32641602 112.02978516 C-95.30924206 117.98071444 -95.33270461 123.93067696 -95.36790562 129.88149834 C-95.38989197 134.46268079 -95.38843481 139.04363248 -95.3801403 143.62485123 C-95.37932119 145.8184528 -95.38617683 148.01207139 -95.40091133 150.20562363 C-95.41837608 153.27684219 -95.40379682 156.34633076 -95.38110352 159.41748047 C-95.39279572 160.31953217 -95.40448792 161.22158386 -95.41653442 162.15097046 C-95.32227287 168.43667469 -93.92357157 171.57825069 -89.75 176.3125 C-87.38949132 177.73153399 -87.38949132 177.73153399 -84.9375 178.25 C-83.75220703 178.57291016 -83.75220703 178.57291016 -82.54296875 178.90234375 C-81.95128906 179.03769531 -81.35960937 179.17304688 -80.75 179.3125 C-80.75 179.9725 -80.75 180.6325 -80.75 181.3125 C-78.18457776 183.14492155 -78.18457776 183.14492155 -75 184.9375 C-73.93265625 185.56914062 -72.8653125 186.20078125 -71.765625 186.8515625 C-68.70850991 188.60315831 -68.70850991 188.60315831 -64.75 188.3125 C-64.75 188.9725 -64.75 189.6325 -64.75 190.3125 C-61.52698876 192.13611067 -58.29561741 193.94437665 -55.0625 195.75 C-53.69448242 196.5244043 -53.69448242 196.5244043 -52.29882812 197.31445312 C-51.41259766 197.80751953 -50.52636719 198.30058594 -49.61328125 198.80859375 C-48.39572144 199.49199829 -48.39572144 199.49199829 -47.15356445 200.18920898 C-44.6762108 201.34698493 -42.44298472 201.8912627 -39.75 202.3125 C-39.75 202.9725 -39.75 203.6325 -39.75 204.3125 C-34.50741484 207.42714243 -29.70324421 209.91918753 -23.75 211.3125 C-23.75 211.9725 -23.75 212.6325 -23.75 213.3125 C-20.97903557 215.01547912 -18.18062715 216.66736205 -15.375 218.3125 C-14.60027344 218.78945312 -13.82554688 219.26640625 -13.02734375 219.7578125 C-7.29639071 223.07323988 -2.37975815 224.41377607 4.25 223.3125 C7.10157455 221.61502228 7.10157455 221.61502228 9.25 219.3125 C12.22513524 217.3532646 14.73556658 215.963321 18.25 215.3125 C18.25 214.6525 18.25 213.9925 18.25 213.3125 C21.715 212.3225 21.715 212.3225 25.25 211.3125 C25.25 210.6525 25.25 209.9925 25.25 209.3125 C26.03375 209.10625 26.8175 208.9 27.625 208.6875 C31.69973993 207.14190899 35.111619 205.07135055 38.78515625 202.75 C41.25 201.3125 41.25 201.3125 43.78515625 200.3046875 C46.34730139 199.27333272 48.36269873 198.01376045 50.625 196.4375 C61.43124281 189.08350115 61.43124281 189.08350115 66.25 188.3125 C66.25 187.6525 66.25 186.9925 66.25 186.3125 C67.549375 185.94125 67.549375 185.94125 68.875 185.5625 C72.43792868 184.24289678 75.11138767 182.42765179 78.25 180.3125 C80.625 179.5625 80.625 179.5625 82.25 179.3125 C82.25 178.6525 82.25 177.9925 82.25 177.3125 C83.1575 177.085625 84.065 176.85875 85 176.625 C88.94404975 175.03221068 90.05462394 173.94949598 92.25 170.3125 C92.84191965 167.02897713 92.81709523 163.79056522 92.79931641 160.4609375 C92.8146492 158.9795932 92.8146492 158.9795932 92.83029175 157.46832275 C92.85806537 154.20780115 92.85617244 150.94812574 92.8515625 147.6875 C92.85933657 145.41975592 92.86800594 143.15201474 92.87753296 140.88427734 C92.89245271 136.13304194 92.89187783 131.38210379 92.88134766 126.63085938 C92.86974913 120.54061497 92.90364207 114.45158524 92.950037 108.36154175 C92.97949009 103.67920819 92.98125836 98.99716808 92.97501755 94.3147583 C92.97604477 92.06925039 92.98653546 89.82372623 93.00664139 87.57830811 C93.03130146 84.43942087 93.0178353 81.30291128 92.99462891 78.1640625 C93.00991638 77.23611877 93.02520386 76.30817505 93.04095459 75.35211182 C93.02067063 70.65451508 93.02067063 70.65451508 90.93485641 66.59490967 C88.80694761 64.74287655 87.1533283 63.3125 84.25 63.3125 C84.25 62.6525 84.25 61.9925 84.25 61.3125 C78.8900004 58.89999273 78.8900004 58.89999273 73.25 57.3125 C73.25 56.6525 73.25 55.9925 73.25 55.3125 C72.280625 54.83941406 71.31125 54.36632813 70.3125 53.87890625 C62.15896762 49.86675296 54.16040649 45.67936097 46.3046875 41.10766602 C42.99414798 39.02039343 42.99414798 39.02039343 39.25 38.3125 C39.25 37.6525 39.25 36.9925 39.25 36.3125 C36.29622502 33.94269987 36.29622502 33.94269987 32.25 34.3125 C32.25 33.6525 32.25 32.9925 32.25 32.3125 C29.28 31.3225 26.31 30.3325 23.25 29.3125 C23.25 28.6525 23.25 27.9925 23.25 27.3125 C17.80788719 23.51951228 11.53278576 21.3046028 5.25 19.3125 C5.25 18.6525 5.25 17.9925 5.25 17.3125 C-1.90830915 13.73334543 -8.67622698 17.29203559 -14.75 21.3125 Z " fill="#0D122B" transform="translate(119.75,-0.3125)"/>
<path d="M0 0 C0.79881592 -0.00467285 1.59763184 -0.0093457 2.4206543 -0.01416016 C8.12692955 0.00192955 8.12692955 0.00192955 9.25 1.125 C10.60175447 1.2547773 11.95685043 1.35033666 13.3125 1.4296875 C18.37031008 1.94787295 21.94073357 3.64900238 26.25 6.25 C26.94279053 6.65524902 27.63558105 7.06049805 28.34936523 7.47802734 C39.1962134 13.93505937 48.1811106 21.62877029 55.25 32.125 C54.6875 33.9375 54.6875 33.9375 53.25 36.125 C51.64487002 36.82510988 50.03639377 37.51833273 48.41381836 38.17700195 C44.06101931 40.084022 39.95899452 42.49894114 35.8125 44.8125 C34.89017578 45.32361328 33.96785156 45.83472656 33.01757812 46.36132812 C30.76004596 47.61291332 28.50425759 48.86752949 26.25 50.125 C25.79761963 49.72958008 25.34523926 49.33416016 24.87915039 48.92675781 C21.58434302 46.07035656 18.31513807 43.30678685 14.6875 40.875 C13.98496094 40.39546875 13.28242188 39.9159375 12.55859375 39.421875 C6.06889149 35.77622162 0.13195492 35.87827043 -7.125 36 C-8.14722656 36.00902344 -9.16945312 36.01804688 -10.22265625 36.02734375 C-12.73201522 36.0507957 -15.24088336 36.08361645 -17.75 36.125 C-17.75 36.785 -17.75 37.445 -17.75 38.125 C-18.74 38.434375 -19.73 38.74375 -20.75 39.0625 C-28.03728391 42.24884276 -32.49311751 48.92692243 -35.75 55.9375 C-39.20347385 65.16237251 -38.72545429 73.52036873 -35.015625 82.5859375 C-31.18706284 90.26669492 -25.83195597 95.40369602 -18.75 100.125 C-16.7603005 100.51513716 -14.75980131 100.85702649 -12.75 101.125 C-12.75 101.785 -12.75 102.445 -12.75 103.125 C-2.355 102.63 -2.355 102.63 8.25 102.125 C8.25 101.465 8.25 100.805 8.25 100.125 C9.57 100.125 10.89 100.125 12.25 100.125 C12.25 99.465 12.25 98.805 12.25 98.125 C13.82421875 97.08203125 13.82421875 97.08203125 15.9375 95.9375 C20.36098053 93.31326821 22.534184 90.45333174 25.25 86.125 C27.23 86.62 27.23 86.62 29.25 87.125 C29.25 87.785 29.25 88.445 29.25 89.125 C32.22 90.115 35.19 91.105 38.25 92.125 C38.25 92.785 38.25 93.445 38.25 94.125 C39.136875 94.41375 40.02375 94.7025 40.9375 95 C43.75382424 95.95648748 46.50083156 96.99298946 49.25 98.125 C49.25 98.785 49.25 99.445 49.25 100.125 C50.9 100.455 52.55 100.785 54.25 101.125 C54.96484375 102.828125 54.96484375 102.828125 55.25 105.125 C50.17717383 113.62306777 41.88518824 122.19060672 33.25 127.125 C32.59 127.125 31.93 127.125 31.25 127.125 C31.25 127.785 31.25 128.445 31.25 129.125 C28.1274461 130.35387605 24.99978623 131.56338523 21.859375 132.74609375 C19.70636093 133.56861969 17.5649383 134.4244753 15.453125 135.34765625 C2.97162029 140.37993922 -13.25366727 139.95551517 -25.75 135.125 C-26.54792969 134.86976563 -27.34585938 134.61453125 -28.16796875 134.3515625 C-44.39519469 128.72750009 -57.37787464 115.79287819 -65.484375 100.94921875 C-73.1244761 85.15841574 -76.14107716 66.22265461 -70.91796875 49.08203125 C-66.7054468 38.4168837 -61.67360895 28.53462957 -53.75 20.125 C-53.03585938 19.35800781 -52.32171875 18.59101562 -51.5859375 17.80078125 C-44.63799609 10.95740752 -36.54630892 7.06491495 -27.75 3.125 C-26.88375 2.73441406 -26.0175 2.34382813 -25.125 1.94140625 C-17.33717892 -0.73565725 -8.16798748 0.03407723 0 0 Z " fill="#F9FBFC" transform="translate(122.75,50.875)"/>
<path d="M0 0 C3.46874952 1.51444602 5.09934548 4.1039308 7.18359375 7.125 C17.55658578 21.31421425 30.73728177 29.27149155 47.765625 33.6640625 C63.99291091 36.08746391 77.39837549 32.94427249 92.4284668 26.796875 C94.43359375 26.0625 94.43359375 26.0625 96.43359375 26.0625 C96.43359375 25.4025 96.43359375 24.7425 96.43359375 24.0625 C98.0859375 22.87109375 98.0859375 22.87109375 100.37109375 21.5 C109.00490105 15.91581066 115.38864102 8.2844132 121.43359375 0.0625 C123.41359375 0.5575 123.41359375 0.5575 125.43359375 1.0625 C125.43359375 1.7225 125.43359375 2.3825 125.43359375 3.0625 C126.17609375 3.18625 126.91859375 3.31 127.68359375 3.4375 C130.2350086 4.01736701 132.16035105 4.79958739 134.43359375 6.0625 C134.43359375 6.7225 134.43359375 7.3825 134.43359375 8.0625 C135.28179687 8.31773437 136.13 8.57296875 137.00390625 8.8359375 C140.67111468 10.14744484 143.89933932 11.80893123 147.30859375 13.6875 C148.46101562 14.31914062 149.6134375 14.95078125 150.80078125 15.6015625 C152.10402344 16.32472656 152.10402344 16.32472656 153.43359375 17.0625 C148.04966518 22.66071429 148.04966518 22.66071429 144.43359375 23.0625 C144.43359375 23.7225 144.43359375 24.3825 144.43359375 25.0625 C143.42296875 25.475 142.41234375 25.8875 141.37109375 26.3125 C138.66726803 27.46107637 136.1503766 28.75687294 133.62109375 30.25 C130.43359375 32.0625 130.43359375 32.0625 128.43359375 32.0625 C128.43359375 32.7225 128.43359375 33.3825 128.43359375 34.0625 C127.52609375 34.413125 126.61859375 34.76375 125.68359375 35.125 C119.38915069 37.81338636 112.29308432 41.20300943 107.43359375 46.0625 C105.8412931 46.74007474 104.24723819 47.41382726 102.64453125 48.06640625 C98.89796583 49.7543465 95.361564 51.83022997 91.7890625 53.85546875 C89.43359375 55.0625 89.43359375 55.0625 87.43359375 55.0625 C87.43359375 55.7225 87.43359375 56.3825 87.43359375 57.0625 C85.12359375 57.7225 82.81359375 58.3825 80.43359375 59.0625 C80.43359375 59.7225 80.43359375 60.3825 80.43359375 61.0625 C79.40234375 61.475 78.37109375 61.8875 77.30859375 62.3125 C73.38313256 63.98800173 69.47962457 66.01646918 66.43359375 69.0625 C58.59631537 70.16329656 53.39184341 68.11541577 46.80859375 64.0625 C45.58849609 63.34707031 45.58849609 63.34707031 44.34375 62.6171875 C42.3613894 61.45109303 40.39296141 60.26668804 38.43359375 59.0625 C38.43359375 58.4025 38.43359375 57.7425 38.43359375 57.0625 C37.86511719 56.89234375 37.29664062 56.7221875 36.7109375 56.546875 C31.50138235 54.91182263 27.07996234 52.92940828 22.43359375 50.0625 C22.43359375 49.4025 22.43359375 48.7425 22.43359375 48.0625 C21.70889893 47.94914307 20.9842041 47.83578613 20.23754883 47.71899414 C17.30876048 47.0332726 15.18679651 46.02720091 12.5703125 44.55859375 C11.2409668 43.81899414 11.2409668 43.81899414 9.88476562 43.06445312 C8.97275391 42.54818359 8.06074219 42.03191406 7.12109375 41.5 C6.18974609 40.97986328 5.25839844 40.45972656 4.29882812 39.92382812 C2.0069558 38.64273026 -0.28122238 37.35547895 -2.56640625 36.0625 C-2.56640625 35.4025 -2.56640625 34.7425 -2.56640625 34.0625 C-3.27152344 33.96066406 -3.97664063 33.85882813 -4.703125 33.75390625 C-7.9770027 32.96335188 -10.45225092 31.65726266 -13.37890625 30 C-14.35472656 29.45214844 -15.33054687 28.90429688 -16.3359375 28.33984375 C-17.44001953 27.70755859 -17.44001953 27.70755859 -18.56640625 27.0625 C-18.56640625 26.4025 -18.56640625 25.7425 -18.56640625 25.0625 C-19.1696875 24.91554687 -19.77296875 24.76859375 -20.39453125 24.6171875 C-21.19375 24.39289063 -21.99296875 24.16859375 -22.81640625 23.9375 C-23.99976563 23.62425781 -23.99976563 23.62425781 -25.20703125 23.3046875 C-28.46714597 21.58826948 -29.72217028 19.18416547 -31.56640625 16.0625 C-29.32224326 14.71840238 -27.07197829 13.38720104 -24.81640625 12.0625 C-24.1821875 11.6809375 -23.54796875 11.299375 -22.89453125 10.90625 C-19.42669149 8.88334348 -17.67292371 8.0625 -13.56640625 8.0625 C-13.56640625 7.4025 -13.56640625 6.7425 -13.56640625 6.0625 C-11.84774408 5.0240789 -10.11596027 4.00735365 -8.37890625 3 C-6.93451172 2.14728516 -6.93451172 2.14728516 -5.4609375 1.27734375 C-2.56640625 0.0625 -2.56640625 0.0625 0 0 Z " fill="#01549B" transform="translate(57.56640625,153.9375)"/>
<path d="M0 0 C2.18384464 1.05148075 4.25206924 2.15669169 6.3125 3.4375 C9.45822155 5.26640788 12.63651067 6.61503381 16 8 C16 8.66 16 9.32 16 10 C16.886875 10.28875 17.77375 10.5775 18.6875 10.875 C21.50382424 11.83148748 24.25083156 12.86798946 27 14 C27 14.66 27 15.32 27 16 C28.32 16.33 29.64 16.66 31 17 C30.58311525 21.86365546 28.58780535 23.82938132 25 27 C21.37931034 30 21.37931034 30 19 30 C19 30.66 19 31.32 19 32 C17.68 32 16.36 32 15 32 C15 32.66 15 33.32 15 34 C12.22276075 34.78688445 9.77389923 35.11949924 6.890625 35.09765625 C6.13652344 35.09443359 5.38242188 35.09121094 4.60546875 35.08789062 C3.82816406 35.07951172 3.05085938 35.07113281 2.25 35.0625 C1.45722656 35.05798828 0.66445312 35.05347656 -0.15234375 35.04882812 C-2.10159508 35.03708565 -4.05080738 35.01915146 -6 35 C-6 34.34 -6 33.68 -6 33 C-6.825 33.12375 -7.65 33.2475 -8.5 33.375 C-15.96160927 32.57554186 -20.99485047 26.21786536 -25.84765625 20.9296875 C-27 19 -27 19 -26.87011719 17.08154297 C-25.6411451 14.14152726 -23.95800651 13.36875326 -21.23046875 11.765625 C-20.25916016 11.19199219 -19.28785156 10.61835938 -18.28710938 10.02734375 C-17.26423828 9.44082031 -16.24136719 8.85429688 -15.1875 8.25 C-14.17623047 7.64800781 -13.16496094 7.04601562 -12.12304688 6.42578125 C-4.53097541 2 -4.53097541 2 0 2 C0 1.34 0 0.68 0 0 Z " fill="#03569E" transform="translate(116,119)"/>
<path d="M0 0 C3.3 0 6.6 0 10 0 C10 3.3 10 6.6 10 10 C13.3 10 16.6 10 20 10 C20 13.3 20 16.6 20 20 C16.7 20 13.4 20 10 20 C10 22.97 10 25.94 10 29 C6.7 29 3.4 29 0 29 C0 25.7 0 22.4 0 19 C-2.97 19 -5.94 19 -9 19 C-9 16.03 -9 13.06 -9 10 C-6.03 10 -3.06 10 0 10 C0 6.7 0 3.4 0 0 Z " fill="#F6F9FC" transform="translate(153,105)"/>
<path d="M0 0 C2.97 0 5.94 0 9 0 C9 3.3 9 6.6 9 10 C12.3 10 15.6 10 19 10 C19 12.97 19 15.94 19 19 C16.03 19.33 13.06 19.66 10 20 C9.67 22.97 9.34 25.94 9 29 C6.03 29 3.06 29 0 29 C0 26.03 0 23.06 0 20 C-3.3 20 -6.6 20 -10 20 C-10 16.7 -10 13.4 -10 10 C-6.7 10 -3.4 10 0 10 C0 6.7 0 3.4 0 0 Z " fill="#F9FBFC" transform="translate(188,105)"/>
</svg>
