<?xml version="1.0" encoding="UTF-8"?>
<svg version="1.1" xmlns="http://www.w3.org/2000/svg" width="226" height="226">
<path d="M0 0 C0.98870087 0.00081573 0.98870087 0.00081573 1.99737549 0.00164795 C12.97851814 0.04318906 22.9941372 0.99005212 33.4375 4.375 C34.1190918 4.58930664 34.80068359 4.80361328 35.50292969 5.02441406 C63.22472498 13.95309356 86.9760589 33.49259417 100.74926758 59.21972656 C109.46818622 76.36402622 113.83939632 93.69685188 113.8125 112.9375 C113.81195618 113.59663391 113.81141235 114.25576782 113.81085205 114.93487549 C113.76931094 125.91601814 112.82244788 135.9316372 109.4375 146.375 C109.22319336 147.0565918 109.00888672 147.73818359 108.78808594 148.44042969 C99.85940644 176.16222498 80.31990583 199.9135589 54.59277344 213.68676758 C37.44847378 222.40568622 20.11564812 226.77689632 0.875 226.75 C-0.11370087 226.74918427 -0.11370087 226.74918427 -1.12237549 226.74835205 C-12.10351814 226.70681094 -22.1191372 225.75994788 -32.5625 222.375 C-33.2440918 222.16069336 -33.92568359 221.94638672 -34.62792969 221.72558594 C-62.34972498 212.79690644 -86.1010589 193.25740583 -99.87426758 167.53027344 C-108.59318622 150.38597378 -112.96439632 133.05314812 -112.9375 113.8125 C-112.93695618 113.15336609 -112.93641235 112.49423218 -112.93585205 111.81512451 C-112.89431094 100.83398186 -111.94744788 90.8183628 -108.5625 80.375 C-108.24104004 79.3526123 -108.24104004 79.3526123 -107.91308594 78.30957031 C-98.98440644 50.58777502 -79.44490583 26.8364411 -53.71777344 13.06323242 C-36.57347378 4.34431378 -19.24064812 -0.02689632 0 0 Z " fill="#FAFAFA" transform="translate(112.5625,-0.375)"/>
<path d="M0 0 C1.60875 -0.04253906 1.60875 -0.04253906 3.25 -0.0859375 C10.93948236 -0.1046467 16.06911595 1.58624556 22.625 5.5 C24.18486844 6.31754079 25.74703719 7.13072328 27.3125 7.9375 C38.48450392 14.32710224 46.33184983 24.53570992 50 36.96484375 C52.97388089 53.78585753 50.08962652 67.35394531 40.625 81.5 C38.375 84.625 38.375 84.625 36.625 86.5 C35.965 86.5 35.305 86.5 34.625 86.5 C34.625 87.16 34.625 87.82 34.625 88.5 C32.28502506 90.31601108 29.95711235 91.98232377 27.5 93.625 C26.83484375 94.09292969 26.1696875 94.56085938 25.484375 95.04296875 C21.42934609 97.77017447 18.68359871 99.22265696 13.625 98.5 C12.02723776 96.90223776 12.42266748 95.16121702 12.34375 92.94921875 C12.28767578 91.55993164 12.28767578 91.55993164 12.23046875 90.14257812 C12.19566406 89.16740234 12.16085938 88.19222656 12.125 87.1875 C12.0559052 85.27459771 11.98312534 83.36182415 11.90625 81.44921875 C11.87595703 80.59674561 11.84566406 79.74427246 11.81445312 78.8659668 C11.63580945 76.63499273 11.23788795 74.64789933 10.625 72.5 C11.594375 72.45875 12.56375 72.4175 13.5625 72.375 C19.29314478 71.53636906 24.40342924 68.21457687 28.05078125 63.7578125 C31.79151522 57.63661146 32.34727238 50.51461146 31.625 43.5 C30.82096847 41.02871289 29.75715978 38.85489235 28.625 36.5 C27.17390785 31.61905369 27.53681866 26.54593205 27.625 21.5 C26.01931334 21.78317926 24.41547953 22.07687791 22.8125 22.375 C21.91917969 22.53742188 21.02585937 22.69984375 20.10546875 22.8671875 C17.39772154 23.41188449 17.39772154 23.41188449 14.625 25.5 C10.41114681 25.88793657 6.19615169 25.82912401 1.96582031 25.81567383 C-0.10406029 25.81253179 -2.17248544 25.83591333 -4.2421875 25.86132812 C-6.21832031 25.86229492 -6.21832031 25.86229492 -8.234375 25.86328125 C-10.03600098 25.86775269 -10.03600098 25.86775269 -11.87402344 25.87231445 C-15.98745387 25.43486805 -18.65284154 24.26499244 -22.375 22.5 C-23.69776056 22.12691369 -25.02732077 21.76953585 -26.375 21.5 C-26.41238281 22.50160156 -26.44976562 23.50320312 -26.48828125 24.53515625 C-27.04988816 36.64394907 -27.04988816 36.64394907 -28.9375 40.25 C-31.52864337 46.10823719 -31.22810729 52.68615921 -29.25 58.75 C-27.04984373 63.79375448 -23.76068994 68.15422619 -18.9375 70.875 C-15.76819101 71.64800219 -12.61339443 72.11901242 -9.375 72.5 C-11 78.25 -11 78.25 -14.375 80.5 C-18.37829634 80.9448107 -20.57220873 81.0160801 -24 78.8125 C-25.66776315 77.18862536 -27.28956283 75.51684496 -28.875 73.8125 C-31.51055343 71.37461308 -32.86037912 70.80125322 -36.375 70.5 C-35.323125 71.4590625 -35.323125 71.4590625 -34.25 72.4375 C-31.20772017 75.45377744 -29.0006348 78.91094273 -26.70703125 82.51171875 C-25.39467003 84.60959405 -25.39467003 84.60959405 -23.375 86.5 C-20.71257179 86.96290221 -20.71257179 86.96290221 -17.75 87.125 C-15.97625 87.24875 -14.2025 87.3725 -12.375 87.5 C-12.375 91.13 -12.375 94.76 -12.375 98.5 C-18.51316937 99.28694479 -22.47737784 96.87006798 -27.375 93.5 C-39.15760528 84.34776226 -47.2302211 72.94318008 -50.015625 58.08203125 C-51.36049475 44.6771882 -49.26499728 31.80643245 -41.1875 20.75 C-36.32948323 14.97376468 -30.65664686 9.68776458 -24.375 5.5 C-23.055 5.5 -21.735 5.5 -20.375 5.5 C-20.375 4.84 -20.375 4.18 -20.375 3.5 C-13.50532351 0.37288334 -7.49591946 -0.01789002 0 0 Z " fill="#070707" transform="translate(111.375,52.5)"/>
<path d="M0 0 C2.97 0 5.94 0 9 0 C9 4.29 9 8.58 9 13 C12.3 13 15.6 13 19 13 C19 8.71 19 4.42 19 0 C21.64 0 24.28 0 27 0 C27.0246501 5.10863896 27.04283607 10.21724359 27.05493164 15.32592773 C27.05997204 17.06519168 27.0668043 18.80445136 27.07543945 20.54370117 C27.08751792 23.03825937 27.09323108 25.53276173 27.09765625 28.02734375 C27.10281754 28.80963852 27.10797882 29.59193329 27.11329651 30.39793396 C27.11349226 32.26567114 27.06199694 34.13329204 27 36 C26 37 26 37 22.5 37.125 C19 37 19 37 18 36 C17.92686433 33.46950598 17.90752473 30.96695163 17.9375 28.4375 C17.94201172 27.72658203 17.94652344 27.01566406 17.95117188 26.28320312 C17.96299136 24.52209987 17.98092737 22.76103964 18 21 C14.7 21 11.4 21 8 21 C8 26.28 8 31.56 8 37 C5.36 37 2.72 37 0 37 C0 24.79 0 12.58 0 0 Z " fill="#222222" transform="translate(103,159)"/>
<path d="M0 0 C2.64 0 5.28 0 8 0 C8.33 3.63 8.66 7.26 9 11 C10.546875 10.87625 12.09375 10.7525 13.6875 10.625 C17.6534372 10.6643781 18.75700614 10.8299043 22.125 13.1875 C25.36988349 17.99729183 24.82678764 24.49497228 24 30 C22.56984973 32.82454679 21.23498226 34.76501774 19 37 C16.72265625 37.265625 16.72265625 37.265625 14.0625 37.25 C13.18722656 37.25515625 12.31195313 37.2603125 11.41015625 37.265625 C9 37 9 37 6 35 C6 35.66 6 36.32 6 37 C4.02 37 2.04 37 0 37 C0 24.79 0 12.58 0 0 Z " fill="#1C1C1C" transform="translate(159,159)"/>
<path d="M0 0 C1.18335938 0.0009668 1.18335938 0.0009668 2.390625 0.00195312 C8.2346388 0.0471388 8.2346388 0.0471388 9.375 1.1875 C9.08769945 3.52694736 8.75563221 5.8614143 8.375 8.1875 C3.755 8.1875 -0.865 8.1875 -5.625 8.1875 C-7.38243366 12.58108415 -7.92019276 14.66454145 -7.9375 19.1875 C-7.95425781 20.198125 -7.97101562 21.20875 -7.98828125 22.25 C-7.56674178 25.65857725 -6.76825161 27.51083824 -4.625 30.1875 C-2.60373076 30.99386809 -2.60373076 30.99386809 -0.4375 31 C1.4496875 31.0928125 1.4496875 31.0928125 3.375 31.1875 C3.375 28.5475 3.375 25.9075 3.375 23.1875 C1.725 23.1875 0.075 23.1875 -1.625 23.1875 C-1.625 20.8775 -1.625 18.5675 -1.625 16.1875 C2.665 16.1875 6.955 16.1875 11.375 16.1875 C11.375 22.7875 11.375 29.3875 11.375 36.1875 C7.1711684 38.2894158 4.28683048 38.45756684 -0.25 38.375 C-0.930625 38.37435547 -1.61125 38.37371094 -2.3125 38.37304688 C-7.34338846 38.32830577 -7.34338846 38.32830577 -9.625 37.1875 C-9.625 36.5275 -9.625 35.8675 -9.625 35.1875 C-10.223125 34.98125 -10.82125 34.775 -11.4375 34.5625 C-14.5620144 32.59851952 -15.24193718 30.59673048 -16.625 27.1875 C-17.08331476 24.38439228 -17.14853238 21.64924984 -17.125 18.8125 C-17.12218018 18.06025146 -17.11936035 17.30800293 -17.11645508 16.53295898 C-16.94795004 10.76557644 -15.89527989 6.33749032 -11.625 2.1875 C-7.74243359 -0.40087761 -4.49276783 -0.07043118 0 0 Z " fill="#191919" transform="translate(56.625,157.8125)"/>
<path d="M0 0 C0.98870087 0.00081573 0.98870087 0.00081573 1.99737549 0.00164795 C12.97851814 0.04318906 22.9941372 0.99005212 33.4375 4.375 C34.1190918 4.58930664 34.80068359 4.80361328 35.50292969 5.02441406 C49.70995505 9.60023517 62.11882555 16.56895947 73.4375 26.375 C69.76621177 26.375 68.90015641 25.47928353 66 23.3125 C54.61723639 15.12751423 43.24373587 9.04717468 29.4375 6.375 C29.4375 5.715 29.4375 5.055 29.4375 4.375 C18.63102199 3.64588823 7.83108901 3.23114124 -3 3.125 C-4.06395996 3.10373047 -5.12791992 3.08246094 -6.22412109 3.06054688 C-13.76197229 3.02779903 -20.33442627 4.31590507 -27.5625 6.375 C-29.83143846 6.9040271 -32.10185615 7.42684509 -34.375 7.9375 C-38.81978861 8.95253586 -43.19888998 10.05576906 -47.5625 11.375 C-47.5625 12.035 -47.5625 12.695 -47.5625 13.375 C-48.28953125 13.70371094 -49.0165625 14.03242188 -49.765625 14.37109375 C-56.88407475 17.73866806 -62.80705742 21.55215022 -68.96875 26.421875 C-71.5625 28.375 -71.5625 28.375 -73.83984375 29.51171875 C-76.136866 30.66283421 -76.46845508 32.11397383 -77.5625 34.375 C-78.5525 34.705 -79.5425 35.035 -80.5625 35.375 C-81.25931595 36.69282766 -81.92040624 38.0296607 -82.5625 39.375 C-83.89020046 40.98059126 -85.24823995 42.56127254 -86.625 44.125 C-102.42776652 63.25600192 -110.20133827 86.96704306 -109.89868164 111.62915039 C-109.8748064 113.70432765 -109.87819134 115.77823281 -109.88476562 117.85351562 C-109.86937978 125.24778866 -109.39945566 132.1996812 -107.5625 139.375 C-107.30210938 140.51066406 -107.04171875 141.64632812 -106.7734375 142.81640625 C-101.66129176 161.9033429 -92.04799659 177.843392 -78.5703125 192.19140625 C-76.44701865 194.50059158 -74.49719927 196.90674017 -72.5625 199.375 C-88.27603607 192.44979507 -99.51013366 170.3660047 -105.44970703 155.09375 C-110.54141099 141.32463506 -112.95811654 128.56082179 -112.9375 113.8125 C-112.93695618 113.15336609 -112.93641235 112.49423218 -112.93585205 111.81512451 C-112.89431094 100.83398186 -111.94744788 90.8183628 -108.5625 80.375 C-108.24104004 79.3526123 -108.24104004 79.3526123 -107.91308594 78.30957031 C-98.98440644 50.58777502 -79.44490583 26.8364411 -53.71777344 13.06323242 C-36.57347378 4.34431378 -19.24064812 -0.02689632 0 0 Z " fill="#2B2F44" transform="translate(112.5625,-0.375)"/>
<path d="M0 0 C2.64 0 5.28 0 8 0 C8 6.27 8 12.54 8 19 C10.31 19 12.62 19 15 19 C15 12.73 15 6.46 15 0 C17.64 0 20.28 0 23 0 C23 8.58 23 17.16 23 26 C19.761875 26.0825 16.52375 26.165 13.1875 26.25 C12.17067139 26.28641602 11.15384277 26.32283203 10.10620117 26.36035156 C9.30158447 26.3703418 8.49696777 26.38033203 7.66796875 26.390625 C6.84578857 26.41157227 6.0236084 26.43251953 5.17651367 26.45410156 C3 26 3 26 1.2265625 24.30078125 C-0.22871409 21.57097899 -0.34669867 19.87739032 -0.29296875 16.796875 C-0.28330078 15.8171875 -0.27363281 14.8375 -0.26367188 13.828125 C-0.2259668 12.30445313 -0.2259668 12.30445313 -0.1875 10.75 C-0.17396484 9.71875 -0.16042969 8.6875 -0.14648438 7.625 C-0.11117607 5.08280208 -0.06186036 2.54166777 0 0 Z " fill="#1E1E1E" transform="translate(133,170)"/>
<path d="M0 0 C2.64 0 5.28 0 8 0 C8 1.98 8 3.96 8 6 C9.98 6 11.96 6 14 6 C14 8.31 14 10.62 14 13 C12.02 13 10.04 13 8 13 C8.33 16.63 8.66 20.26 9 24 C10.65 24.33 12.3 24.66 14 25 C14 27.31 14 29.62 14 32 C12.41906283 32.1357675 10.83473048 32.23234745 9.25 32.3125 C8.36828125 32.37050781 7.4865625 32.42851562 6.578125 32.48828125 C4 32 4 32 1.6875 29.9375 C-0.42389228 26.26211344 -0.40734419 23.8964572 -0.25 19.6875 C-0.21390625 18.43324219 -0.1778125 17.17898437 -0.140625 15.88671875 C-0.07101563 14.45779297 -0.07101563 14.45779297 0 13 C-1.32 13 -2.64 13 -4 13 C-4 11.35 -4 9.7 -4 8 C-2.68 7.67 -1.36 7.34 0 7 C0 4.69 0 2.38 0 0 Z " fill="#1B1B1B" transform="translate(86,164)"/>
<path d="M0 0 C0.98870087 0.00081573 0.98870087 0.00081573 1.99737549 0.00164795 C12.97851814 0.04318906 22.9941372 0.99005212 33.4375 4.375 C34.4598877 4.69645996 34.4598877 4.69645996 35.50292969 5.02441406 C49.70995505 9.60023517 62.11882555 16.56895947 73.4375 26.375 C69.76621177 26.375 68.90015641 25.47928353 66 23.3125 C54.61723639 15.12751423 43.24373587 9.04717468 29.4375 6.375 C29.4375 5.715 29.4375 5.055 29.4375 4.375 C18.63102199 3.64588823 7.83108901 3.23114124 -3 3.125 C-4.06395996 3.10373047 -5.12791992 3.08246094 -6.22412109 3.06054688 C-12.92747667 3.03142446 -18.74800568 3.92983769 -25.18383789 5.82519531 C-27.5625 6.375 -27.5625 6.375 -29.5625 5.375 C-28.2425 5.045 -26.9225 4.715 -25.5625 4.375 C-25.5625 3.715 -25.5625 3.055 -25.5625 2.375 C-17.01513756 0.46040844 -8.74406808 -0.01222325 0 0 Z " fill="#3C4053" transform="translate(112.5625,-0.375)"/>
<path d="M0 0 C2.64 0 5.28 0 8 0 C8 8.25 8 16.5 8 25 C5.36 25 2.72 25 0 25 C0 16.75 0 8.5 0 0 Z " fill="#181818" transform="translate(72,171)"/>
<path d="M0 0 C-18.2 7 -18.2 7 -22 7 C-22 7.66 -22 8.32 -22 9 C-22.72703125 9.32871094 -23.4540625 9.65742188 -24.203125 9.99609375 C-31.32157475 13.36366806 -37.24455742 17.17715022 -43.40625 22.046875 C-46 24 -46 24 -48.27734375 25.13671875 C-50.574366 26.28783421 -50.90595508 27.73897383 -52 30 C-52.99 30.33 -53.98 30.66 -55 31 C-55.33 31.99 -55.66 32.98 -56 34 C-56.495 32.515 -56.495 32.515 -57 31 C-47.28144266 20.16365332 -16.17546354 -6.24247258 0 0 Z " fill="#292D42" transform="translate(87,4)"/>
<path d="M0 0 C2.31 0 4.62 0 7 0 C8.1898306 2.3796612 8.13349966 3.91485735 8.125 6.5625 C8.12757813 7.36816406 8.13015625 8.17382812 8.1328125 9.00390625 C8 11 8 11 7 12 C4.66702567 12.04092937 2.33294775 12.04241723 0 12 C0 8.04 0 4.08 0 0 Z " fill="#F4F4F4" transform="translate(167,177)"/>
<path d="M0 0 C0.75555679 -0.00095673 1.51111359 -0.00191345 2.28956604 -0.00289917 C3.88225386 -0.00357746 5.4749445 -0.00174774 7.06762695 0.00244141 C9.49241413 0.00778716 11.91701547 0.00248835 14.34179688 -0.00390625 C15.89453166 -0.00324526 17.44726632 -0.00196367 19 0 C20.07839394 -0.00303635 20.07839394 -0.00303635 21.17857361 -0.00613403 C25.24455001 0.01260001 29.07697181 0.34686699 33.06640625 1.1328125 C33.06640625 1.4628125 33.06640625 1.7928125 33.06640625 2.1328125 C32.03870117 2.11710205 31.01099609 2.1013916 29.95214844 2.08520508 C26.08308981 2.03027315 22.21406448 1.9962362 18.34472656 1.96801758 C16.6806048 1.95307326 15.01652142 1.93271027 13.35253906 1.90649414 C4.25942246 1.76697881 -3.99276946 1.83312641 -12.77246094 4.58081055 C-14.93359375 5.1328125 -14.93359375 5.1328125 -16.93359375 4.1328125 C-15.61359375 3.8028125 -14.29359375 3.4728125 -12.93359375 3.1328125 C-12.93359375 2.4728125 -12.93359375 1.8128125 -12.93359375 1.1328125 C-8.6167863 0.07372489 -4.41784886 -0.01240405 0 0 Z " fill="#8F919C" transform="translate(99.93359375,0.8671875)"/>
<path d="M0 0 C3 0.125 3 0.125 4 1.125 C4.125 4.125 4.125 4.125 4 7.125 C3 8.125 3 8.125 0 8.25 C-3 8.125 -3 8.125 -4 7.125 C-4.125 4.125 -4.125 4.125 -4 1.125 C-3 0.125 -3 0.125 0 0 Z " fill="#212121" transform="translate(76,159.875)"/>
<path d="M0 0 C0.33 0.99 0.66 1.98 1 3 C-0.80078125 5.62890625 -0.80078125 5.62890625 -3.3125 8.5625 C-4.54419922 10.01849609 -4.54419922 10.01849609 -5.80078125 11.50390625 C-7.15645275 13.04258137 -8.54993684 14.54993684 -10 16 C-9.52112335 11.23735403 -7.50511358 8.77358348 -4.4375 5.1875 C-3.61121094 4.21167969 -2.78492188 3.23585937 -1.93359375 2.23046875 C-1.29550781 1.49441406 -0.65742188 0.75835937 0 0 Z " fill="#23263C" transform="translate(29,36)"/>
<path d="M0 0 C0 0.66 0 1.32 0 2 C-1.95603851 2.52938657 -3.91492289 3.04826801 -5.875 3.5625 C-6.96554688 3.85253906 -8.05609375 4.14257812 -9.1796875 4.44140625 C-12 5 -12 5 -14 4 C-12.68 3.67 -11.36 3.34 -10 3 C-10 2.34 -10 1.68 -10 1 C-6.59437148 0.22157062 -3.49234244 -0.09978121 0 0 Z " fill="#5F6271" transform="translate(97,1)"/>
<path d="M0 0 C1.98 0 3.96 0 6 0 C6.33 0.99 6.66 1.98 7 3 C4.36 3 1.72 3 -1 3 C-0.67 2.01 -0.34 1.02 0 0 Z " fill="#A6A6A6" transform="translate(73,168)"/>
<path d="M0 0 C0.99 0.33 1.98 0.66 3 1 C1.625 2.5 1.625 2.5 0 4 C-0.66 4 -1.32 4 -2 4 C-2.33 4.99 -2.66 5.98 -3 7 C-3.33 6.01 -3.66 5.02 -4 4 C-2.68 2.68 -1.36 1.36 0 0 Z " fill="#373A4E" transform="translate(34,31)"/>
</svg>
