<?xml version="1.0" encoding="UTF-8"?>
<svg version="1.1" xmlns="http://www.w3.org/2000/svg" width="225" height="225">
<path d="M0 0 C74.25 0 148.5 0 225 0 C225 74.25 225 148.5 225 225 C150.75 225 76.5 225 0 225 C0 150.75 0 76.5 0 0 Z " fill="#35E9A7" transform="translate(0,0)"/>
<path d="M0 0 C1.31659103 -0.00831848 2.63318207 -0.01663696 3.9896698 -0.02520752 C5.44179303 -0.00910828 6.89391091 0.00747909 8.34602356 0.02450562 C9.8804441 0.02427884 11.41486565 0.02186345 12.94927979 0.01742554 C17.11042068 0.0117225 21.27086013 0.03699825 25.43186736 0.06810045 C29.78443813 0.09565207 34.13701016 0.0956407 38.48965454 0.09881592 C45.79574213 0.10801647 53.10156767 0.1355418 60.407547 0.1758728 C70.72009015 0.23274782 81.03250165 0.25502908 91.34517705 0.2711575 C98.48136581 0.28360231 105.6175345 0.30428419 112.75369859 0.32653761 C114.48604968 0.33190299 116.21840149 0.33703922 117.95075393 0.34194994 C122.88602965 0.35623323 127.82122982 0.37563315 132.75644875 0.40342712 C134.25367079 0.41116221 135.75090254 0.41721814 137.24813843 0.42150497 C139.28564373 0.42770219 141.32312501 0.44070597 143.3605957 0.45410156 C144.50265567 0.45967386 145.64471563 0.46524616 146.82138348 0.47098732 C149.48982239 0.60800171 149.48982239 0.60800171 151.48982239 1.60800171 C151.48982239 37.24800171 151.48982239 72.88800171 151.48982239 109.60800171 C150.82982239 109.60800171 150.16982239 109.60800171 149.48982239 109.60800171 C149.38669739 108.96862671 149.28357239 108.32925171 149.17732239 107.67050171 C148.83700989 106.64956421 148.83700989 106.64956421 148.48982239 105.60800171 C147.49982239 105.27800171 146.50982239 104.94800171 145.48982239 104.60800171 C143.8538809 102.70334059 142.35161306 100.81096741 140.86482239 98.79550171 C140.42968323 98.21743774 139.99454407 97.63937378 139.54621887 97.04379272 C138.1877491 95.23651423 136.83883619 93.42234453 135.48982239 91.60800171 C134.6404083 90.47715717 133.79017615 89.34692655 132.93904114 88.21737671 C130.78308018 85.35217164 128.6349442 82.48132439 126.48982239 79.60800171 C125.62163879 78.51165405 125.62163879 78.51165405 124.73591614 77.39315796 C123.48982239 75.60800171 123.48982239 75.60800171 123.48982239 73.60800171 C122.82982239 73.60800171 122.16982239 73.60800171 121.48982239 73.60800171 C117.48982239 69.25506053 117.48982239 69.25506053 117.48982239 65.60800171 C116.88911926 65.35663452 116.28841614 65.10526733 115.66950989 64.84628296 C113.19305936 63.43941053 112.20072132 62.13851059 110.61482239 59.79550171 C106.57854464 54.20758956 102.47789124 50.08624704 95.48982239 48.60800171 C88.40141518 47.82040091 82.52869946 48.67060767 76.48982239 52.60800171 C71.78059168 56.77269611 68.89377096 61.26659572 68.29687309 67.68170929 C68.21166364 70.14613559 68.18850807 72.60400524 68.18684387 75.06991577 C68.17418488 76.47092529 68.17418488 76.47092529 68.16127014 77.90023804 C68.13556489 80.97470631 68.123371 84.04907877 68.11091614 87.12362671 C68.09473779 89.26261146 68.07755744 91.40158885 68.05941772 93.54055786 C68.01378859 99.16212569 67.97894795 104.78370337 67.94721985 110.40536499 C67.89528145 119.41779267 67.83031433 128.43011257 67.75900459 137.4424057 C67.73612784 140.59445733 67.71988827 143.74649511 67.70428467 146.89859009 C67.69088309 148.82028356 67.67726873 150.74197557 67.66340637 152.66366577 C67.660793 153.54471985 67.65817963 154.42577393 67.65548706 155.33352661 C67.6034608 161.38072488 67.6034608 161.38072488 66.48982239 163.60800171 C57.04092449 163.67750517 47.59211455 163.73081465 38.14301682 163.76343822 C33.75543439 163.77909574 29.36802683 163.80033548 24.98054504 163.83432007 C20.74655182 163.86691061 16.51272683 163.88485408 12.27861786 163.89263344 C10.66306663 163.89817751 9.04752462 163.90900374 7.43204498 163.92519188 C5.16952603 163.94696256 2.90770263 163.94996886 0.64509583 163.94857788 C-1.28683624 163.95857063 -1.28683624 163.95857063 -3.25779724 163.96876526 C-6.72386265 163.58429914 -8.10618352 163.08777634 -10.51017761 160.60800171 C-11.59771176 157.34539927 -11.64686171 154.94487559 -11.66407776 151.51037598 C-11.67267822 150.23452637 -11.68127869 148.95867676 -11.69013977 147.64416504 C-11.69457484 146.22732585 -11.69887322 144.81048622 -11.70304871 143.39364624 C-11.71095094 141.90379648 -11.71921997 140.41394863 -11.72782898 138.92410278 C-11.7540292 134.02969181 -11.76935195 129.13527235 -11.78361511 124.24081421 C-11.78897511 122.5560086 -11.79435262 120.87120305 -11.79974747 119.18639755 C-11.82137087 112.17948968 -11.84010872 105.1725841 -11.85136986 98.16565132 C-11.86761822 88.12172235 -11.90082338 78.07817964 -11.95777071 68.03439629 C-11.99644637 60.97274489 -12.01599956 53.91119691 -12.02129042 46.84944236 C-12.02494641 42.63103149 -12.03699382 38.41303279 -12.06939316 34.19473648 C-12.09943337 30.22685976 -12.10580052 26.25964551 -12.0940094 22.29167938 C-12.09378834 20.83600014 -12.1021205 19.3802905 -12.11966324 17.92471695 C-12.14232048 15.93647191 -12.13108611 13.94792697 -12.11817932 11.95959473 C-12.12148947 10.84719988 -12.12479961 9.73480503 -12.12821007 8.58870125 C-10.73237541 1.85675104 -6.40407693 -0.01854321 0 0 Z " fill="#FEFEFE" transform="translate(42.51017761230469,30.391998291015625)"/>
<path d="M0 0 C12.21 0 24.42 0 37 0 C37.09037816 21.73177686 37.16402733 43.46340099 37.20724869 65.19531822 C37.22785267 75.28636795 37.25593187 85.37729241 37.30175781 95.46826172 C37.34169186 104.26603488 37.36744854 113.0637173 37.37635398 121.86157858 C37.38155761 126.5177615 37.3937428 131.17368486 37.42292023 135.82978439 C37.45019321 140.21777925 37.45842112 144.60540911 37.45243073 148.99348068 C37.45352567 150.59863269 37.46140861 152.20379767 37.4768219 153.80887604 C37.57041379 164.06341822 36.90907057 172.88432449 30.75 181.4375 C24.49782939 187.26338625 17.69059749 187.65207608 9.4296875 187.4921875 C4.33640179 186.76126039 0.59505527 184.66642113 -3 181 C-3.33 180.01 -3.66 179.02 -4 178 C-4.66 178 -5.32 178 -6 178 C-7.29590571 176.40618494 -8.51152694 174.74675218 -9.6875 173.0625 C-12.31838957 169.34577056 -14.98397629 165.69375438 -17.8125 162.125 C-20.12714829 159.18717717 -22.07554716 156.2074214 -24 153 C-25.33190041 151.66523528 -26.66547353 150.33213913 -28 149 C-29.44211693 147.33419705 -30.85856914 145.64586789 -32.25 143.9375 C-32.95640625 143.08027344 -33.6628125 142.22304687 -34.390625 141.33984375 C-36 139 -36 139 -36 136 C-36.59296875 135.75507813 -37.1859375 135.51015625 -37.796875 135.2578125 C-40.36698726 133.79047891 -41.54529966 132.27707775 -43.25 129.875 C-43.77078125 129.15054688 -44.2915625 128.42609375 -44.828125 127.6796875 C-45.21484375 127.12539062 -45.6015625 126.57109375 -46 126 C-46.00808685 126.83414429 -46.01617371 127.66828857 -46.02450562 128.52770996 C-46.10265217 136.41320022 -46.19000249 144.2985244 -46.28752708 152.18379974 C-46.33733759 156.23708211 -46.38366814 160.29034033 -46.421875 164.34375 C-46.45892147 168.26016545 -46.50533216 172.17637103 -46.55806351 176.09260559 C-46.57650513 177.5819783 -46.59165029 179.07139582 -46.60334396 180.56083679 C-46.68504157 190.61270648 -47.04842456 198.99713557 -52 208 C-52.66 208 -53.32 208 -54 208 C-54.061875 208.556875 -54.12375 209.11375 -54.1875 209.6875 C-56.13154324 215.22054613 -62.11772028 219.03382563 -67 222 C-70.88251831 223.63065769 -73.8328511 224.07716942 -78 224 C-78.09358941 207.46634716 -78.16405052 190.93278073 -78.20724869 174.39892673 C-78.22784268 166.72134591 -78.25590237 159.04393002 -78.30175781 151.36645508 C-78.34172292 144.67197379 -78.3674558 137.97761199 -78.37635398 131.28301471 C-78.38155248 127.74074213 -78.39370378 124.1988113 -78.42292023 120.65664864 C-78.45532975 116.69494519 -78.45595321 112.73357103 -78.45410156 108.77172852 C-78.46848267 107.60719147 -78.48286377 106.44265442 -78.49768066 105.24282837 C-78.45750082 97.28247236 -77.22472362 90.91014059 -72.0703125 84.66015625 C-65.01074727 78.86224023 -59.13085537 77.11025211 -50 78 C-41.18534114 80.47429021 -34.6533312 87.36853683 -30 95 C-29.01 95.495 -29.01 95.495 -28 96 C-26.25160484 98.65756064 -25.00872518 100.97382445 -24 104 C-23.34 104 -22.68 104 -22 104 C-20.68269433 105.61399614 -19.44595733 107.29413839 -18.25 109 C-17.17298828 110.51787109 -17.17298828 110.51787109 -16.07421875 112.06640625 C-15.38972656 113.03449219 -14.70523438 114.00257812 -14 115 C-12.55998877 116.95039495 -11.10165678 118.88564954 -9.640625 120.8203125 C-8.33138063 122.55973716 -7.03130797 124.30606409 -5.734375 126.0546875 C-5.33468506 126.59230713 -4.93499512 127.12992676 -4.52319336 127.68383789 C-3.364406 129.24267445 -2.20754804 130.8029447 -1.05078125 132.36328125 C0.85521963 134.93636435 0.85521963 134.93636435 2.76953125 136.73046875 C4 138 4 138 4 140 C4.66 140 5.32 140 6 140 C5.89278721 122.59761066 5.78003052 105.19526729 5.66066074 87.79295731 C5.60536569 79.71289766 5.5518898 71.6328336 5.50268555 63.55273438 C5.45979817 56.51071906 5.41350868 49.46873577 5.36312145 42.42676997 C5.33655721 38.69758158 5.31170507 34.96839938 5.29092598 31.23917389 C5.26767469 27.07769551 5.23682854 22.91630688 5.20532227 18.75488281 C5.1995668 17.51626495 5.19381134 16.27764709 5.18788147 15.00149536 C5.17809265 13.86850006 5.16830383 12.73550476 5.15821838 11.56817627 C5.15176583 10.58370136 5.14531328 9.59922646 5.1386652 8.58491898 C5.0129431 6.241278 4.66538188 4.24276287 4 2 C2.68 2 1.36 2 0 2 C0 1.34 0 0.68 0 0 Z " fill="#64F555" transform="translate(188,0)"/>
<path d="M0 0 C62.04 0 124.08 0 188 0 C188 0.66 188 1.32 188 2 C189.32 2 190.64 2 192 2 C194.09352976 5.43367856 194.23437612 8.09363593 194.1953125 12.078125 C194.18564453 13.81835938 194.18564453 13.81835938 194.17578125 15.59375 C194.15064453 17.40359375 194.15064453 17.40359375 194.125 19.25 C194.11597656 20.47203125 194.10695312 21.6940625 194.09765625 22.953125 C194.07409513 25.96894782 194.04119706 28.98437492 194 32 C192.7840962 31.99446924 192.7840962 31.99446924 191.54362869 31.98882675 C171.8309008 31.90053593 152.11820694 31.83431974 132.40532303 31.79275131 C122.87235672 31.77211543 113.33952229 31.74397528 103.80664062 31.69824219 C95.4989465 31.65840577 87.19134787 31.63257465 78.8835609 31.62364602 C74.48354571 31.61842583 70.08380376 31.60613538 65.68387604 31.57707977 C61.54376835 31.54996104 57.40404686 31.54154775 53.2638588 31.54756927 C51.74326352 31.54646744 50.22265555 31.53849223 48.70213699 31.5231781 C46.62738472 31.50330422 44.55409448 31.50804949 42.47930908 31.51898193 C40.73712034 31.51345118 40.73712034 31.51345118 38.95973587 31.50780869 C35.34965938 32.10814884 34.17293462 33.10165512 32 36 C31.38909878 39.29668229 31.38909878 39.29668229 31.4699707 43.04980469 C31.46123932 43.75310913 31.45250793 44.45641357 31.44351196 45.18103027 C31.41909089 47.51157043 31.42255565 49.84122266 31.42578125 52.171875 C31.41331313 53.81261674 31.3989726 55.4533452 31.38285828 57.09405518 C31.34475494 61.43154587 31.32965077 65.76880927 31.32006836 70.10644531 C31.30044308 76.96136685 31.24371925 83.81616118 31.1934166 90.6709137 C31.17588023 93.15783881 31.16103527 95.64477096 31.14627075 98.13171387 C31.06176891 110.77161976 30.67767905 123.37653546 30 136 C28.35 136 26.7 136 25 136 C23.83154046 114.66629063 23.89353331 93.35721722 24 72 C20.535 72.495 20.535 72.495 17 73 C16.67 75.31 16.34 77.62 16 80 C12.535 80.495 12.535 80.495 9 81 C8.67 83.31 8.34 85.62 8 88 C5.36 88.33 2.72 88.66 0 89 C0 59.63 0 30.26 0 0 Z " fill="#16E3C7" transform="translate(0,0)"/>
<path d="M0 0 C2.54570362 2.50783365 4.96086967 4.95080759 7.1875 7.75 C8.80309077 10.07487388 8.80309077 10.07487388 11 11 C11.5878125 11.99 11.5878125 11.99 12.1875 13 C14.36083699 16.59724743 16.92843 19.75241377 19.57421875 23.01171875 C21 25 21 25 21 27 C21.99 27.33 22.98 27.66 24 28 C25.21875 29.57421875 25.21875 29.57421875 26.5 31.6875 C29.78217971 36.85235133 33.53399712 41.56208865 37.39257812 46.30151367 C41 50.79020925 41 50.79020925 41 53 C41.66 53 42.32 53 43 53 C44.66666667 54.66666667 46.33333333 56.33333333 48 58 C52.07268949 61.01521923 55.0375982 61.38236494 60.0625 61.3125 C61.27035156 61.30863281 62.47820312 61.30476563 63.72265625 61.30078125 C66.83299015 61.01532748 68.32724093 60.44271511 71 59 C72.32 59 73.64 59 75 59 C75.2784375 58.4225 75.556875 57.845 75.84375 57.25 C77.31795745 54.38127198 79.04272703 51.71379195 80.78125 49 C81.96228971 47.06188355 82.98499752 45.03000496 84 43 C84 61.81 84 80.62 84 100 C46.05 100 8.1 100 -31 100 C-31 99.67 -31 99.34 -31 99 C-30.154375 98.78085938 -29.30875 98.56171875 -28.4375 98.3359375 C-19.82425453 95.92814388 -12.71601981 93.58328343 -8 85.625 C-7.505 84.325625 -7.505 84.325625 -7 83 C-6.34 83 -5.68 83 -5 83 C-4.30356015 81.01017187 -3.645124 79.00705243 -3 77 C-2.65533691 75.93523437 -2.31067383 74.87046875 -1.95556641 73.7734375 C-0.30594743 67.03869627 -0.63925064 60.01834389 -0.5859375 53.125 C-0.56720205 51.58942654 -0.54762691 50.05386313 -0.5272522 48.51831055 C-0.47617574 44.50056914 -0.43641993 40.48279445 -0.39910889 36.46490479 C-0.35891467 32.35542736 -0.30789309 28.24608548 -0.2578125 24.13671875 C-0.16134362 16.09123883 -0.07684711 8.04569117 0 0 Z " fill="#FDFEFC" transform="translate(141,125)"/>
<path d="M0 0 C0.33 0 0.66 0 1 0 C1 8.58 1 17.16 1 26 C-35.63 25.505 -35.63 25.505 -73 25 C-73 24.67 -73 24.34 -73 24 C-62.44 23.67 -51.88 23.34 -41 23 C-41 22.67 -41 22.34 -41 22 C-46.28 21.67 -51.56 21.34 -57 21 C-57 20.67 -57 20.34 -57 20 C-49.08 19.67 -41.16 19.34 -33 19 C-33 18.67 -33 18.34 -33 18 C-22.44 18 -11.88 18 -1 18 C-1 12.72 -1 7.44 -1 2 C-0.67 1.34 -0.34 0.68 0 0 Z " fill="#31D7A1" transform="translate(193,6)"/>
<path d="M0 0 C10.89 0 21.78 0 33 0 C33 11.55 33 23.1 33 35 C32.67 35 32.34 35 32 35 C31.90525391 34.00033203 31.90525391 34.00033203 31.80859375 32.98046875 C30.68199812 24.50135431 27.6175875 16.96432415 20.984375 11.26953125 C19.35126975 10.13764326 17.67917892 9.06233768 16 8 C16 7.34 16 6.68 16 6 C15.484375 5.896875 14.96875 5.79375 14.4375 5.6875 C12 5 12 5 8.5625 3.5 C5.61935384 2.26078056 3.13246022 1.47461518 0 1 C0 0.67 0 0.34 0 0 Z " fill="#FAFDFA" transform="translate(192,0)"/>
<path d="M0 0 C1.51514926 3.03029851 2.8619003 5.99064148 4.125 9.125 C4.47820313 9.99382812 4.83140625 10.86265625 5.1953125 11.7578125 C6 14 6 14 6 16 C6.66 16 7.32 16 8 16 C8.37125 16.70125 8.7425 17.4025 9.125 18.125 C13.096611 24.21480354 20.22552442 28.51168301 27 31 C29.69798166 31.54975996 32.24378953 31.80312782 35 32 C35 32.33 35 32.66 35 33 C23.45 33 11.9 33 0 33 C0 22.11 0 11.22 0 0 Z " fill="#F8FCFB" transform="translate(0,192)"/>
<path d="M0 0 C10.56 0 21.12 0 32 0 C16 8 16 8 13.6875 9 C11.64996902 9.95854206 11.64996902 9.95854206 11 13 C10.34 13 9.68 13 9 13 C7.40683324 16.12732735 5.94165519 19.30022871 4.5 22.5 C3.05608677 25.70478302 1.5728045 28.85439101 0 32 C0 21.44 0 10.88 0 0 Z " fill="#FCFEFD" transform="translate(0,0)"/>
<path d="M0 0 C0.33 0 0.66 0 1 0 C1.02345689 9.49466796 1.04108121 18.98932552 1.05181217 28.48401642 C1.05696964 32.89560489 1.06393261 37.30717315 1.07543945 41.71875 C1.12489309 61.17347892 1.08976961 80.56843718 0 100 C-1.65 100 -3.3 100 -5 100 C-5.83738787 81.23672129 -6.37935832 62.74449426 -5 44 C-3.35 44 -1.7 44 0 44 C0 29.48 0 14.96 0 0 Z " fill="#21E7BE" transform="translate(30,36)"/>
<path d="M0 0 C0 0.33 0 0.66 0 1 C-11.385 1.495 -11.385 1.495 -23 2 C-23 2.33 -23 2.66 -23 3 C-20.69 3.33 -18.38 3.66 -16 4 C-16 4.33 -16 4.66 -16 5 C-45.33868749 5.92544853 -74.64791778 6.12350371 -104 6 C-104 5.67 -104 5.34 -104 5 C-91.13 4.67 -78.26 4.34 -65 4 C-72.59 3.34 -80.18 2.68 -88 2 C-88 1.67 -88 1.34 -88 1 C-80.07028675 0.71102701 -72.14029621 0.43243461 -64.20980072 0.16588497 C-60.52444426 0.04171673 -56.83926036 -0.08558084 -53.15429688 -0.22094727 C-35.38347063 -0.87124736 -17.76772246 -1.13392014 0 0 Z " fill="#24E6BA" transform="translate(176,25)"/>
<path d="M0 0 C0.33 0 0.66 0 1 0 C1 13.2 1 26.4 1 40 C1.99 40 2.98 40 4 40 C4 32.08 4 24.16 4 16 C4.33 16 4.66 16 5 16 C5.12976787 41.35464532 4.8712585 66.65935398 4 92 C3.67 92 3.34 92 3 92 C3 85.4 3 78.8 3 72 C2.34 72 1.68 72 1 72 C0.67 77.28 0.34 82.56 0 88 C-0.33 88 -0.66 88 -1 88 C-1.12350371 58.64791778 -0.92544853 29.33868749 0 0 Z " fill="#2CE9B1" transform="translate(26,96)"/>
<path d="M0 0 C0.33 0 0.66 0 1 0 C1 10.89 1 21.78 1 33 C-0.98 33 -2.96 33 -5 33 C-3.02 32.505 -3.02 32.505 -1 32 C-0.67 24.08 -0.34 16.16 0 8 C-9.57 8 -19.14 8 -29 8 C-29 7.34 -29 6.68 -29 6 C-36.92 6 -44.84 6 -53 6 C-53 5.01 -53 4.02 -53 3 C-35.32891902 2.37711386 -17.68510292 1.82075909 0 2 C0 1.34 0 0.68 0 0 Z " fill="#45ED91" transform="translate(109,192)"/>
<path d="M0 0 C0.625 1.8125 0.625 1.8125 1 4 C0.01 5.485 0.01 5.485 -1 7 C-1.31291631 9.79562885 -1.31291631 9.79562885 -1.2784729 13.01737976 C-1.28963638 14.27521271 -1.30079987 15.53304565 -1.31230164 16.82899475 C-1.31466667 18.22543305 -1.31684231 19.62187168 -1.31884766 21.01831055 C-1.32814437 22.48672031 -1.33831266 23.95512478 -1.34928894 25.42352295 C-1.37663205 29.41287624 -1.39175107 33.40219414 -1.40471697 37.39161658 C-1.42032869 41.55968784 -1.44712512 45.72768661 -1.4727478 49.89570618 C-1.51957035 57.78979816 -1.5562976 65.68390373 -1.58942068 73.57806379 C-1.62761754 82.56470601 -1.67703406 91.5512755 -1.72740483 100.53785646 C-1.83077636 119.02518444 -1.92001976 137.51255678 -2 156 C-2.33 156 -2.66 156 -3 156 C-3.07004681 136.25076828 -3.12296694 116.50156173 -3.15543652 96.7522316 C-3.17091268 87.58250021 -3.1920165 78.41284595 -3.22631836 69.24316406 C-3.2561978 61.25189658 -3.27556955 53.26068495 -3.28226548 45.26936316 C-3.28618022 41.03707195 -3.29539588 36.80494055 -3.31719017 32.5727005 C-3.33753238 28.5902241 -3.34383843 24.60797355 -3.33932304 20.62545013 C-3.34014926 19.16291578 -3.34612852 17.70037399 -3.35761642 16.23788452 C-3.37252324 14.24248705 -3.36717033 12.24696875 -3.36076355 10.25152588 C-3.36352893 9.13431278 -3.36629431 8.01709969 -3.36914349 6.86603165 C-2.9606627 3.69458504 -2.13662182 2.32726432 0 0 Z " fill="#ECFCFC" transform="translate(34,32)"/>
<path d="M0 0 C13.2 0 26.4 0 40 0 C40 1.32 40 2.64 40 4 C33.53527123 4.9690387 27.24950714 5.13107425 20.71875 5.09765625 C19.66465942 5.0962413 18.61056885 5.09482635 17.52453613 5.09336853 C14.18299429 5.08780508 10.84152133 5.07525941 7.5 5.0625 C5.22395931 5.05748027 2.94791755 5.0529182 0.671875 5.04882812 C-4.88543987 5.03784764 -10.44271501 5.02114622 -16 5 C-16 4.67 -16 4.34 -16 4 C-5.44 3.67 5.12 3.34 16 3 C16 2.67 16 2.34 16 2 C10.72 1.67 5.44 1.34 0 1 C0 0.67 0 0.34 0 0 Z " fill="#2EE0AF" transform="translate(136,26)"/>
<path d="M0 0 C0.33 0 0.66 0 1 0 C1 35.64 1 71.28 1 108 C0.34 108 -0.32 108 -1 108 C-1.103125 107.360625 -1.20625 106.72125 -1.3125 106.0625 C-1.539375 105.381875 -1.76625 104.70125 -2 104 C-2.99 103.67 -3.98 103.34 -5 103 C-4.35125916 102.70135544 -3.70251831 102.40271088 -3.03411865 102.09501648 C0.24227751 98.72053095 -0.42944733 95.00974801 -0.45410156 90.47973633 C-0.44376389 89.50394119 -0.43342621 88.52814606 -0.42277527 87.52278137 C-0.39324038 84.29236501 -0.39184582 81.06257229 -0.390625 77.83203125 C-0.37565061 75.59428199 -0.35892503 73.35654382 -0.34051514 71.11882019 C-0.29674648 65.22514349 -0.27682137 59.33161588 -0.26177979 53.43780518 C-0.24224303 47.42524362 -0.2002692 41.41284389 -0.16015625 35.40039062 C-0.084751 23.60031022 -0.03452197 11.80026585 0 0 Z " fill="#F9FDEC" transform="translate(193,32)"/>
<path d="M0 0 C16.5 0 33 0 50 0 C50 0.33 50 0.66 50 1 C39.44 1 28.88 1 18 1 C18 1.99 18 2.98 18 4 C15.37493198 4.02690844 12.75013827 4.04679404 10.125 4.0625 C9.37863281 4.07087891 8.63226563 4.07925781 7.86328125 4.08789062 C2.2265625 4.11328125 2.2265625 4.11328125 0 3 C0 3.66 0 4.32 0 5 C-1.65 5.33 -3.3 5.66 -5 6 C-5.33 5.01 -5.66 4.02 -6 3 C-4.02 2.34 -2.04 1.68 0 1 C0 0.67 0 0.34 0 0 Z " fill="#44EDA1" transform="translate(38,194)"/>
<path d="M0 0 C0.33 0 0.66 0 1 0 C1 10.89 1 21.78 1 33 C-0.98 33 -2.96 33 -5 33 C-3.02 32.505 -3.02 32.505 -1 32 C-0.67 24.08 -0.34 16.16 0 8 C-1.65 8 -3.3 8 -5 8 C-5 7.34 -5 6.68 -5 6 C-7.64 6 -10.28 6 -13 6 C-13 4.68 -13 3.36 -13 2 C-8.71 2 -4.42 2 0 2 C0 1.34 0 0.68 0 0 Z " fill="#51E57E" transform="translate(109,192)"/>
<path d="M0 0 C0.66 0 1.32 0 2 0 C2 0.99 2 1.98 2 3 C5.61084479 4.11635203 9.02227518 4.15721884 12.78808594 4.20532227 C13.46166641 4.21522186 14.13524689 4.22512146 14.82923889 4.23532104 C17.04758229 4.26681658 19.26594707 4.29164597 21.484375 4.31640625 C23.02566066 4.33698611 24.5669408 4.35798285 26.10821533 4.37937927 C30.15891038 4.4344934 34.20965547 4.48394954 38.26043701 4.53222656 C42.39632606 4.58251956 46.53214272 4.63816487 50.66796875 4.69335938 C58.77858457 4.80081052 66.88926107 4.90228428 75 5 C75 5.33 75 5.66 75 6 C65.5511311 6.09267099 56.10241858 6.16375 46.65319443 6.20724869 C42.26554058 6.22812571 37.87819759 6.2564451 33.49072266 6.30175781 C29.25671584 6.34521201 25.02300806 6.36913624 20.78879547 6.37950897 C19.17322329 6.38690117 17.55766751 6.4013365 15.9422226 6.42292023 C13.67954617 6.45194982 11.41810605 6.45595638 9.15527344 6.45410156 C7.22334137 6.46742523 7.22334137 6.46742523 5.25238037 6.48101807 C1.47996639 5.92308847 0.32119662 4.94727465 -2 2 C-1.34 2 -0.68 2 0 2 C0 1.34 0 0.68 0 0 Z " fill="#EFFBF0" transform="translate(34,188)"/>
<path d="M0 0 C-0.33 0.66 -0.66 1.32 -1 2 C-0.01 2.66 0.98 3.32 2 4 C-1.55965981 6.37310654 -3.21962224 6.26915041 -7.4375 6.25 C-8.57058594 6.25515625 -9.70367187 6.2603125 -10.87109375 6.265625 C-13.83525691 6.01398568 -15.50313671 5.54596941 -18 4 C-12.44141905 -0.94096084 -7.1846465 -0.4185231 0 0 Z " fill="#06E2D7" transform="translate(38,2)"/>
<path d="M0 0 C0.66 0 1.32 0 2 0 C3.52491998 3.04983996 3.23562548 5.6423369 3 9 C1.5 10.8125 1.5 10.8125 0 12 C0 12.66 0 13.32 0 14 C-1.32 14 -2.64 14 -4 14 C-3.36843005 8.94744036 -1.86540627 4.70406799 0 0 Z " fill="#05E1D4" transform="translate(4,26)"/>
<path d="M0 0 C1.32 0 2.64 0 4 0 C4 0.66 4 1.32 4 2 C5.32 2 6.64 2 8 2 C8.33 3.32 8.66 4.64 9 6 C3.375 8.125 3.375 8.125 0 7 C0 4.69 0 2.38 0 0 Z " fill="#2DDBA6" transform="translate(184,0)"/>
<path d="M0 0 C0.33 0.66 0.66 1.32 1 2 C0.01 2.99 -0.98 3.98 -2 5 C-0.35 4.67 1.3 4.34 3 4 C3 4.66 3 5.32 3 6 C1.02 6.66 -0.96 7.32 -3 8 C-3.33 9.65 -3.66 11.3 -4 13 C-4.66 13 -5.32 13 -6 13 C-6 11.35 -6 9.7 -6 8 C-6.66 7.67 -7.32 7.34 -8 7 C-5.36 4.69 -2.72 2.38 0 0 Z " fill="#6CF361" transform="translate(122,80)"/>
<path d="M0 0 C4.29 0 8.58 0 13 0 C13.66 1.65 14.32 3.3 15 5 C17.04105639 5.88693303 17.04105639 5.88693303 19 6 C19.33 7.32 19.66 8.64 20 10 C18.68 9.34 17.36 8.68 16 8 C16 7.34 16 6.68 16 6 C15.484375 5.896875 14.96875 5.79375 14.4375 5.6875 C12 5 12 5 8.5625 3.5 C5.61935384 2.26078056 3.13246022 1.47461518 0 1 C0 0.67 0 0.34 0 0 Z " fill="#E9FAE7" transform="translate(192,0)"/>
<path d="M0 0 C1.54078615 2.98440561 2.86973276 6.01007758 4.125 9.125 C4.47820313 9.99382812 4.83140625 10.86265625 5.1953125 11.7578125 C6 14 6 14 6 16 C4.35 16 2.7 16 1 16 C-0.50156874 12.99686252 -0.09281204 10.20932478 -0.0625 6.875 C-0.05347656 5.59367188 -0.04445312 4.31234375 -0.03515625 2.9921875 C-0.02355469 2.00476563 -0.01195312 1.01734375 0 0 Z " fill="#EDFBF6" transform="translate(0,192)"/>
<path d="M0 0 C1.32 0 2.64 0 4 0 C4 2.97 4 5.94 4 9 C2 6 2 6 2 4 C1.34 4 0.68 4 0 4 C-0.28875 5.27875 -0.5775 6.5575 -0.875 7.875 C-1.54102483 10.82453855 -1.80202597 11.80202597 -4 14 C-3.53328373 8.58609132 -2.75702189 4.79482068 0 0 Z " fill="#1AE2D6" transform="translate(4,22)"/>
<path d="M0 0 C0.66 0.33 1.32 0.66 2 1 C1.67 1.66 1.34 2.32 1 3 C0.9603287 4.66619446 0.95615553 6.33391013 1 8 C-2.62528568 8.20140476 -4.86501708 7.85776765 -8 6 C-7 3 -7 3 -3.5625 1.25 C-2.386875 0.8375 -1.21125 0.425 0 0 Z " fill="#3EEE97" transform="translate(31,216)"/>
<path d="M0 0 C0.33 0 0.66 0 1 0 C1.05406122 1.93719378 1.09282025 3.87481921 1.125 5.8125 C1.14820313 6.89144531 1.17140625 7.97039062 1.1953125 9.08203125 C1 12 1 12 -1 15 C-1.99 15 -2.98 15 -4 15 C-3.43179252 9.54520815 -2.05362055 5.08940744 0 0 Z " fill="#FBFBFD" transform="translate(224,168)"/>
<path d="M0 0 C1.61648437 0.04060547 1.61648437 0.04060547 3.265625 0.08203125 C4.08546875 0.11683594 4.9053125 0.15164063 5.75 0.1875 C2.73029212 1.75379708 -0.33650414 3.06375164 -3.5 4.3125 C-4.39203125 4.66570313 -5.2840625 5.01890625 -6.203125 5.3828125 C-6.87859375 5.64835938 -7.5540625 5.91390625 -8.25 6.1875 C-8.25 5.5275 -8.25 4.8675 -8.25 4.1875 C-8.91 3.8575 -9.57 3.5275 -10.25 3.1875 C-6.86416198 0.05642164 -4.53890538 -0.14800778 0 0 Z " fill="#E9F9F9" transform="translate(26.25,-0.1875)"/>
<path d="M0 0 C0.99 0 1.98 0 3 0 C4.25248502 2.50497004 4.11374406 4.20853274 4.09765625 7.0078125 C4.09443359 7.99394531 4.09121094 8.98007812 4.08789062 9.99609375 C4.07951172 11.02863281 4.07113281 12.06117187 4.0625 13.125 C4.05798828 14.16527344 4.05347656 15.20554687 4.04882812 16.27734375 C4.03701952 18.85161962 4.02055075 21.42578146 4 24 C3.67 24 3.34 24 3 24 C2.95101563 22.9378125 2.90203125 21.875625 2.8515625 20.78125 C2.31639785 10.25498713 2.31639785 10.25498713 0 0 Z " fill="#08E4CE" transform="translate(24,32)"/>
<path d="M0 0 C3.77518545 1.25839515 4.19759138 2.55903808 6 6 C6.33 6.99 6.66 7.98 7 9 C7.66 9 8.32 9 9 9 C9 9.66 9 10.32 9 11 C8.01 11 7.02 11 6 11 C5.67 10.34 5.34 9.68 5 9 C4.34 9 3.68 9 3 9 C2.67 7.02 2.34 5.04 2 3 C1.01 3.33 0.02 3.66 -1 4 C-0.67 2.68 -0.34 1.36 0 0 Z " fill="#72F465" transform="translate(157,95)"/>
<path d="M0 0 C1.32 0.66 2.64 1.32 4 2 C0.535 4.97 0.535 4.97 -3 8 C-3.33 6.02 -3.66 4.04 -4 2 C-2.25 0.875 -2.25 0.875 0 0 Z " fill="#F0FCEF" transform="translate(116,80)"/>
<path d="M0 0 C0.33 0 0.66 0 1 0 C1 5.94 1 11.88 1 18 C0.67 18 0.34 18 0 18 C-0.13277344 17.24074219 -0.26554688 16.48148438 -0.40234375 15.69921875 C-0.57894531 14.70535156 -0.75554687 13.71148437 -0.9375 12.6875 C-1.11152344 11.70136719 -1.28554687 10.71523438 -1.46484375 9.69921875 C-1.95746847 6.91810787 -1.95746847 6.91810787 -3 4 C-2.34 4 -1.68 4 -1 4 C-0.67 2.68 -0.34 1.36 0 0 Z " fill="#F0FDEC" transform="translate(224,17)"/>
<path d="M0 0 C1.9375 0.75 1.9375 0.75 4 2 C4.75 4.125 4.75 4.125 5 6 C3.35 6.66 1.7 7.32 0 8 C-0.33 7.67 -0.66 7.34 -1 7 C-0.71269945 4.66055264 -0.38063221 2.3260857 0 0 Z " fill="#6CF460" transform="translate(187,134)"/>
<path d="M0 0 C0 3.41099168 -0.49145406 6.63088314 -1 10 C-2.65 10 -4.3 10 -6 10 C-5.649375 9.38125 -5.29875 8.7625 -4.9375 8.125 C-4.628125 7.42375 -4.31875 6.7225 -4 6 C-4.33 5.34 -4.66 4.68 -5 4 C-3.35 2.68 -1.7 1.36 0 0 Z " fill="#11E2D8" transform="translate(17,6)"/>
<path d="M0 0 C1.6875 1.4375 1.6875 1.4375 3 4 C2.35087445 7.14284955 1.23221253 10.04268993 0 13 C-0.33 13 -0.66 13 -1 13 C-1.02696365 11.20841511 -1.04637917 9.41671527 -1.0625 7.625 C-1.07410156 6.62726562 -1.08570312 5.62953125 -1.09765625 4.6015625 C-1 2 -1 2 0 0 Z " fill="#ECFBFA" transform="translate(1,19)"/>
<path d="M0 0 C2.97 0.33 5.94 0.66 9 1 C8.01 2.485 8.01 2.485 7 4 C6.36707617 6.11280345 6.36707617 6.11280345 6 8 C5.34 6.02 4.68 4.04 4 2 C2.68 2 1.36 2 0 2 C0 1.34 0 0.68 0 0 Z " fill="#60ED6F" transform="translate(188,0)"/>
<path d="M0 0 C0.99 0 1.98 0 3 0 C2.67 2.64 2.34 5.28 2 8 C1.01 8 0.02 8 -1 8 C-1.33 6.02 -1.66 4.04 -2 2 C-1.34 2 -0.68 2 0 2 C0 1.34 0 0.68 0 0 Z " fill="#3EE8AD" transform="translate(3,192)"/>
<path d="M0 0 C-0.33 1.32 -0.66 2.64 -1 4 C-1.70125 3.855625 -2.4025 3.71125 -3.125 3.5625 C-6.07556141 2.98521625 -9.03270151 2.48304859 -12 2 C-8.09971775 -0.60018816 -4.52565431 -0.15085514 0 0 Z " fill="#20E4D7" transform="translate(40,0)"/>
<path d="M0 0 C2.31 0 4.62 0 7 0 C7.33 0.66 7.66 1.32 8 2 C7.01 3.485 7.01 3.485 6 5 C3.98079663 3.69593116 1.98075027 2.36176581 0 1 C0 0.67 0 0.34 0 0 Z " fill="#42EEA3" transform="translate(15,216)"/>
<path d="M0 0 C0.33 0.66 0.66 1.32 1 2 C-1.97 2 -4.94 2 -8 2 C-8.33 1.34 -8.66 0.68 -9 0 C-5.88173308 -1.55913346 -3.32926126 -0.66585225 0 0 Z " fill="#6BF45F" transform="translate(203,3)"/>
<path d="M0 0 C1.98 0.495 1.98 0.495 4 1 C4 1.66 4 2.32 4 3 C4.99 3.33 5.98 3.66 7 4 C4.39417629 4.93065133 3.35801776 5.14917407 0.75 4.0625 C0.1725 3.711875 -0.405 3.36125 -1 3 C-0.67 2.01 -0.34 1.02 0 0 Z " fill="#4EEBA3" transform="translate(24,219)"/>
<path d="M0 0 C2.64 0.66 5.28 1.32 8 2 C7.34 3.32 6.68 4.64 6 6 C3.97945196 4.35830472 1.97956942 2.69088222 0 1 C0 0.67 0 0.34 0 0 Z " fill="#E1FCE2" transform="translate(144,80)"/>
<path d="M0 0 C1.65 0 3.3 0 5 0 C5 1.65 5 3.3 5 5 C3.35 5 1.7 5 0 5 C0.66 4.67 1.32 4.34 2 4 C2 3.01 2 2.02 2 1 C1.34 0.67 0.68 0.34 0 0 Z " fill="#45E681" transform="translate(104,195)"/>
<path d="M0 0 C0.33 0 0.66 0 1 0 C1.36923077 6.4 1.36923077 6.4 -0.5 9.4375 C-0.995 9.953125 -1.49 10.46875 -2 11 C-2.66 10.67 -3.32 10.34 -4 10 C-2.68 6.7 -1.36 3.4 0 0 Z " fill="#DEFDDA" transform="translate(224,168)"/>
<path d="M0 0 C0.66 0.33 1.32 0.66 2 1 C2 2.98 2 4.96 2 7 C1.34 6.67 0.68 6.34 0 6 C0 5.34 0 4.68 0 4 C-0.99 3.67 -1.98 3.34 -3 3 C-2.01 2.01 -1.02 1.02 0 0 Z " fill="#F0FAF1" transform="translate(191,132)"/>
<path d="M0 0 C-2 2 -2 2 -4.1640625 2.1953125 C-5.38222656 2.16050781 -5.38222656 2.16050781 -6.625 2.125 C-7.44226563 2.10695312 -8.25953125 2.08890625 -9.1015625 2.0703125 C-9.72804688 2.04710937 -10.35453125 2.02390625 -11 2 C-11 1.67 -11 1.34 -11 1 C-3.375 -1.125 -3.375 -1.125 0 0 Z " fill="#DAFDD7" transform="translate(121,223)"/>
<path d="M0 0 C1.98 0 3.96 0 6 0 C5.67 0.66 5.34 1.32 5 2 C4.34 2 3.68 2 3 2 C2.67 2.99 2.34 3.98 2 5 C1.34 4.34 0.68 3.68 0 3 C0 2.01 0 1.02 0 0 Z " fill="#DDF7F7" transform="translate(9,8)"/>
</svg>
